<?xml version="1.0" standalone="no"?>
<!DOCTYPE svg PUBLIC "-//W3C//DTD SVG 20010904//EN"
 "http://www.w3.org/TR/2001/REC-SVG-20010904/DTD/svg10.dtd">
<svg version="1.0" xmlns="http://www.w3.org/2000/svg"
 width="500.000000pt" height="500.000000pt" viewBox="0 0 500.000000 500.000000"
 preserveAspectRatio="xMidYMid meet">
<metadata>
Created by potrace 1.14, written by Peter Selinger 2001-2017
</metadata>
<g transform="translate(0.000000,500.000000) scale(0.100000,-0.100000)"
fill="#000000" stroke="none">
<path d="M0 2500 l0 -2500 2500 0 2500 0 0 2500 0 2500 -2500 0 -2500 0 0
-2500z m2444 665 c5 -89 4 -136 -2 -130 -6 6 -13 73 -17 150 -4 91 -3 136 3
130 5 -5 13 -73 16 -150z m125 98 c-1 -50 -14 -118 -20 -108 -9 15 2 135 12
135 5 0 9 -12 8 -27z m281 -17 c0 -2 -21 -50 -46 -107 -25 -57 -50 -115 -55
-128 -5 -13 -12 -21 -15 -18 -8 7 96 257 107 257 5 0 9 -2 9 -4z m-666 -58
c10 -29 21 -59 23 -65 3 -7 1 -13 -3 -13 -5 0 -19 26 -32 58 -24 63 -26 72
-14 72 4 0 16 -24 26 -52z m126 -15 c7 -32 15 -63 17 -70 3 -7 0 -13 -5 -13
-6 0 -16 26 -22 57 -7 32 -15 63 -17 70 -3 7 0 13 5 13 6 0 16 -26 22 -57z
m360 -13 c-7 -33 -17 -63 -21 -66 -11 -7 -11 2 0 46 5 19 12 48 16 64 3 15 9
26 12 22 3 -3 0 -33 -7 -66z m-573 -77 c74 -127 83 -146 61 -123 -16 16 -148
226 -148 235 0 24 29 -13 87 -112z m863 72 c0 -13 -75 -116 -78 -107 -4 12 58
112 69 112 5 0 9 -2 9 -5z m-409 -56 c-9 -23 -10 -22 -10 11 -1 23 2 31 9 24
7 -7 7 -19 1 -35z m-318 -39 c3 -11 1 -20 -4 -20 -5 0 -9 4 -9 9 0 5 -3 17 -7
27 -4 11 -3 15 4 11 6 -4 13 -16 16 -27z m106 -30 c0 -23 -1 -23 -9 -5 -5 11
-9 29 -9 40 -1 17 1 17 9 5 5 -8 9 -26 9 -40z m305 12 c-4 -18 -10 -32 -14
-32 -7 0 -5 24 6 59 8 26 14 4 8 -27z m-103 -52 c-9 -23 -10 -21 -10 16 -1 22
2 44 7 48 11 12 14 -37 3 -64z m-509 -35 c6 -11 -13 2 -41 30 -28 27 -51 54
-51 59 0 13 78 -63 92 -89z m953 35 c-27 -27 -51 -47 -54 -45 -3 3 17 28 44
55 27 27 51 47 54 45 3 -3 -17 -28 -44 -55z m-125 10 c-6 -12 -14 -19 -17 -17
-2 3 1 15 7 27 6 12 14 19 17 17 2 -3 -1 -15 -7 -27z m-597 -22 c9 -21 13 -38
8 -38 -7 0 -31 58 -31 75 0 13 7 3 23 -37z m184 0 c-3 -7 -5 -2 -5 12 0 14 2
19 5 13 2 -7 2 -19 0 -25z m-100 -10 c-3 -8 -6 -5 -6 6 -1 11 2 17 5 13 3 -3
4 -12 1 -19z m275 0 c-7 -7 -12 -8 -12 -2 0 6 3 14 7 17 3 4 9 5 12 2 2 -3 -1
-11 -7 -17z m-744 -23 c28 -20 52 -40 52 -45 0 -10 -94 46 -111 67 -20 23 5
14 59 -22z m845 10 c-3 -9 -8 -14 -10 -11 -3 3 -2 9 2 15 9 16 15 13 8 -4z
m87 -30 c-12 -20 -25 -34 -27 -31 -3 3 5 21 17 41 12 20 25 34 27 31 3 -3 -5
-21 -17 -41z m380 38 c-1 -10 -231 -144 -241 -141 -9 4 211 146 229 147 6 1
12 -2 12 -6z m-294 -61 l-29 -27 23 32 c13 18 26 30 29 28 3 -3 -8 -18 -23
-33z m-806 -15 c0 -6 -9 -2 -20 8 -11 10 -20 23 -20 28 0 6 9 2 20 -8 11 -10
20 -23 20 -28z m110 22 c0 -6 -4 -7 -10 -4 -5 3 -10 11 -10 16 0 6 5 7 10 4 6
-3 10 -11 10 -16z m-224 -34 c10 -8 14 -15 8 -15 -5 0 -19 7 -30 15 -10 8 -14
15 -8 15 5 0 19 -7 30 -15z m504 -15 c19 -17 40 -30 48 -30 35 0 121 -37 155
-67 40 -36 48 -38 78 -22 17 9 27 4 64 -30 51 -47 71 -50 123 -20 36 21 38 21
94 4 32 -9 64 -25 72 -37 20 -29 38 -18 43 25 2 20 7 47 12 59 9 22 10 22 25
-12 15 -33 16 -34 22 -12 l7 23 15 -22 c14 -21 29 -69 37 -121 4 -27 3 -28
-40 -28 -25 0 -45 5 -45 10 0 6 -9 10 -19 10 -11 0 -38 16 -61 35 -23 19 -50
35 -61 35 -10 0 -19 5 -19 10 0 15 -37 12 -73 -6 l-32 -17 30 -15 c28 -14 125
-112 111 -112 -3 0 -23 15 -43 33 -21 19 -53 37 -71 40 -18 4 -43 19 -56 34
-21 25 -26 26 -50 15 -38 -17 -43 -16 -55 18 -13 40 -34 38 -54 -5 l-17 -35
25 0 c29 0 30 -4 10 -61 -20 -55 -9 -80 50 -115 22 -13 36 -24 31 -24 -5 0
-29 12 -53 28 -50 31 -61 58 -46 115 10 37 10 39 -11 34 -11 -2 -29 -8 -38
-12 -13 -5 -8 9 17 51 19 32 35 62 35 66 0 23 -80 -35 -103 -75 -27 -45 -99
-117 -118 -117 -5 0 -7 5 -4 10 11 18 -15 10 -36 -11 -11 -11 -28 -22 -37 -24
-9 -2 -34 -10 -54 -19 -42 -18 -72 -21 -63 -6 3 6 2 10 -2 10 -5 0 -9 9 -9 20
0 11 4 20 8 20 4 0 8 7 8 15 0 24 -44 18 -71 -11 -13 -14 -37 -35 -54 -47 -21
-14 -16 -5 19 30 28 30 60 53 77 57 16 3 29 10 29 15 0 6 -8 7 -17 4 -12 -5
-10 0 6 16 13 13 20 25 18 28 -13 13 -71 -34 -137 -111 -40 -47 -78 -86 -83
-86 -5 0 0 8 10 18 11 9 44 47 72 84 29 38 59 72 67 76 14 8 24 95 12 107 -3
4 -16 2 -27 -5 -20 -10 -20 -12 -4 -38 l17 -27 -25 21 c-13 12 -36 24 -51 28
-25 6 -28 3 -28 -17 0 -14 -11 -41 -25 -61 -14 -20 -25 -40 -25 -44 0 -18 -92
-92 -115 -92 -3 0 10 16 30 35 19 20 38 48 41 63 4 15 11 33 17 40 16 20 -8
14 -27 -7 -13 -15 -14 -20 -4 -24 7 -3 -9 -6 -37 -6 -45 -1 -54 -5 -88 -41
-20 -22 -43 -40 -49 -40 -11 0 28 49 62 77 9 7 10 12 4 13 -6 0 -17 -7 -24
-15 -7 -8 -18 -15 -25 -15 -7 0 -32 -9 -57 -20 -53 -23 -88 -17 -88 14 0 13 3
26 7 30 4 3 8 12 9 19 16 94 26 111 43 79 6 -10 8 -22 5 -25 -3 -3 -1 -8 5
-12 6 -3 11 -3 12 2 1 17 8 45 13 59 7 18 26 18 26 1 0 -7 7 -22 15 -33 8 -10
14 -14 13 -9 -4 18 12 84 22 90 5 3 15 -15 21 -40 6 -25 15 -48 20 -51 5 -3 9
-13 9 -24 0 -23 46 -36 68 -18 10 6 38 32 64 56 44 42 48 44 78 33 31 -10 34
-9 74 32 22 24 54 50 70 58 16 7 45 33 65 56 20 23 41 42 46 42 6 0 26 -13 45
-29z m-355 0 c3 -5 2 -10 -4 -10 -5 0 -13 5 -16 10 -3 6 -2 10 4 10 5 0 13 -4
16 -10z m-259 -52 c66 -22 124 -46 129 -51 7 -7 4 -8 -7 -4 -9 3 -70 22 -135
43 -113 34 -156 54 -121 54 9 0 69 -19 134 -42z m210 -6 c-5 -5 -66 33 -66 41
0 4 15 -3 34 -15 19 -13 33 -24 32 -26z m1154 10 c0 -5 -21 -14 -47 -20 -27
-6 -59 -15 -73 -18 -41 -11 -13 10 38 28 53 18 82 22 82 10z m-300 -6 c0 -2
-7 -7 -16 -10 -8 -3 -12 -2 -9 4 6 10 25 14 25 6z m150 -35 c0 -5 -11 -11 -25
-13 -28 -6 -35 8 -7 15 28 8 32 7 32 -2z m-100 -31 c-34 -11 -60 -11 -35 0 11
5 29 8 40 8 16 0 15 -2 -5 -8z m-1120 -254 c0 -2 -9 -6 -20 -9 -11 -3 -18 -1
-14 4 5 9 34 13 34 5z m-656 -137 c22 -17 26 -28 26 -73 0 -58 -20 -96 -51
-96 -27 0 -34 24 -15 52 23 35 25 88 3 102 -57 37 -152 -114 -172 -276 -17
-138 58 -191 142 -101 36 40 56 39 29 -1 -91 -140 -226 -95 -226 75 0 129 65
270 146 316 49 28 84 29 118 2z m1235 -5 c29 -37 35 -98 17 -177 -20 -86 -46
-136 -91 -175 -45 -40 -88 -43 -110 -8 -14 21 -15 28 -3 51 l14 26 12 -25 c25
-56 87 -18 127 77 20 49 20 50 -19 11 -64 -64 -116 -35 -116 64 0 124 112 228
169 156z m484 10 c3 -3 3 -12 0 -20 -3 -9 -21 -14 -53 -14 -46 0 -49 -2 -59
-32 -25 -78 -60 -230 -72 -308 -12 -83 -26 -110 -56 -110 -20 0 -16 30 36 245
27 110 47 202 45 203 -1 2 -26 -1 -55 -7 -28 -6 -54 -9 -56 -7 -11 11 10 45
30 49 35 7 233 8 240 1z m-855 -66 c-3 -47 -15 -86 -47 -155 -65 -142 -47
-182 42 -89 29 31 56 56 60 56 15 0 -14 -40 -64 -90 -57 -57 -95 -66 -105 -25
-7 30 -12 31 -38 6 -31 -28 -61 -34 -80 -16 -9 9 -16 24 -16 32 0 14 -4 13
-22 -4 -13 -11 -34 -26 -47 -33 -22 -11 -27 -10 -41 7 -16 20 -17 20 -39 2
-49 -40 -101 -11 -101 57 0 24 -2 44 -5 44 -20 0 -56 -28 -66 -52 -26 -63
-103 -90 -133 -46 -20 28 -20 78 -1 125 23 54 44 73 80 73 37 0 64 -25 67 -63
3 -38 25 -34 68 13 20 22 44 40 53 40 13 0 13 -6 -4 -50 -10 -28 -19 -66 -19
-85 0 -32 2 -35 30 -35 33 0 45 16 53 75 8 63 24 95 47 95 24 0 26 -21 5 -80
-18 -52 -19 -90 -2 -90 26 0 59 34 81 83 39 86 98 125 133 88 18 -20 19 -19
42 68 23 91 34 111 59 111 11 0 13 -13 10 -62z m-718 30 c0 -13 -20 -97 -43
-188 -33 -124 -48 -166 -60 -168 -24 -5 -22 11 19 193 45 200 40 185 64 185
14 0 20 -7 20 -22z m2524 14 c3 -5 -16 -90 -42 -191 -36 -141 -50 -181 -62
-178 -10 2 -15 13 -14 34 l2 32 -50 -35 c-63 -43 -108 -45 -137 -8 -12 15 -21
39 -21 55 0 26 -2 27 -37 22 -26 -4 -46 -15 -63 -37 -63 -78 -82 -83 -107 -31
l-16 34 -39 -34 c-21 -19 -41 -35 -46 -35 -13 0 -28 15 -35 33 -6 17 -8 17
-28 -2 -40 -37 -99 -35 -99 5 0 9 -16 2 -45 -18 -39 -28 -48 -30 -70 -20 -31
14 -33 54 -5 97 27 41 26 65 -3 65 -17 0 -33 -18 -71 -80 -26 -44 -52 -77 -57
-74 -5 3 9 41 31 84 22 44 40 92 40 106 0 29 25 64 46 64 16 0 27 -32 18 -54
-5 -12 0 -16 20 -16 18 0 30 -8 38 -25 9 -21 7 -30 -16 -65 -30 -46 -33 -70
-8 -70 23 0 74 54 100 106 28 55 77 96 111 92 17 -2 27 -10 30 -23 2 -11 7
-22 11 -25 5 -3 3 -33 -4 -67 -18 -87 -6 -99 44 -46 33 35 40 49 40 82 0 39
22 75 42 69 11 -4 11 -5 2 -75 -7 -55 0 -103 15 -103 16 0 61 76 61 102 0 35
41 84 64 75 15 -6 15 -10 1 -43 -19 -46 -19 -44 10 -44 13 0 30 7 37 16 48 60
78 84 106 84 22 0 32 -6 37 -20 9 -27 -7 -52 -62 -99 -40 -34 -46 -43 -37 -58
19 -31 56 -27 105 12 56 43 61 55 89 186 13 57 24 110 26 117 4 13 40 17 48 4z
m121 -132 c3 -5 0 -18 -7 -29 -10 -16 -10 -27 0 -51 6 -16 17 -43 24 -59 16
-40 -1 -76 -47 -98 -33 -16 -36 -16 -55 2 -12 10 -20 28 -18 39 4 28 35 33 43
7 3 -12 15 -21 26 -21 24 0 24 29 0 89 l-18 43 -26 -33 c-32 -41 -48 -32 -18
9 12 17 21 40 21 51 0 38 58 78 75 51z m-1767 -400 c-10 -6 -20 -29 -24 -55
-3 -25 -10 -45 -14 -45 -4 0 -3 21 2 46 8 37 7 48 -3 55 -9 6 -2 9 21 9 28 -1
32 -3 18 -10z m127 -41 l-14 -44 6 40 c6 42 12 59 19 52 2 -2 -3 -23 -11 -48z
m373 22 c5 -34 -17 -81 -39 -81 -15 0 -19 7 -19 36 0 45 16 76 38 72 9 -2 18
-14 20 -27z m62 5 c-7 -18 -5 -26 6 -30 16 -6 17 -66 1 -66 -5 0 -6 11 -3 25
8 31 -11 33 -24 3 -13 -32 -12 -5 1 48 6 24 15 44 20 44 5 0 4 -11 -1 -24z
m30 -6 c-6 -12 -14 -20 -17 -17 -2 3 1 14 8 26 17 26 24 19 9 -9z m-523 -30
c-3 -10 0 -21 7 -24 6 -2 -1 -5 -16 -5 -23 -1 -28 3 -27 22 0 21 1 21 8 2 8
-19 8 -19 15 3 9 27 20 30 13 2z m133 -13 c0 -4 -6 -2 -14 5 -8 7 -12 17 -9
22 5 8 23 -12 23 -27z m76 7 c1 -13 -6 -20 -17 -21 -12 -1 -19 5 -19 16 0 36
34 41 36 5z"/>
<path d="M2410 2814 c-28 -64 -25 -77 10 -54 10 6 21 3 37 -12 12 -11 46 -29
75 -39 l53 -19 -42 3 c-41 2 -43 -1 -18 -33 7 -8 15 -26 18 -39 5 -22 4 -22
-25 8 -19 20 -40 31 -58 31 -17 0 -33 8 -43 23 l-16 22 -1 -25 c0 -14 -6 -36
-13 -50 -14 -27 -12 -60 4 -60 5 0 9 10 9 23 0 28 24 64 33 50 3 -5 9 -25 12
-43 3 -18 10 -41 16 -52 10 -18 12 -18 33 -4 17 11 26 12 35 3 14 -14 74 42
102 95 11 21 33 45 49 53 33 17 38 30 14 39 -10 4 -13 2 -9 -7 4 -6 -5 3 -20
21 -36 44 -52 41 -24 -5 15 -25 18 -34 7 -25 -14 11 -17 10 -21 -5 -4 -17 -5
-16 -6 1 -2 29 -49 86 -72 86 l-21 0 21 -37 21 -38 -28 34 c-35 45 -93 101
-104 101 -5 0 -18 -21 -28 -46z"/>
<path d="M2336 2768 c-19 -46 -35 -119 -29 -134 11 -29 62 20 78 74 6 21 4 23
-14 17 -24 -7 -26 0 -6 35 18 32 18 40 0 40 -9 0 -21 -15 -29 -32z"/>
<path d="M2295 2720 c-4 -17 -5 -34 -2 -36 2 -3 7 10 11 27 8 42 0 50 -9 9z"/>
<path d="M2359 2319 c-62 -62 -67 -217 -7 -194 19 8 78 124 78 154 0 31 -18
61 -35 61 -8 0 -24 -9 -36 -21z"/>
<path d="M1438 2149 c-24 -14 -23 -56 2 -69 26 -14 40 -5 40 24 0 34 -21 57
-42 45z"/>
<path d="M1897 2143 c-26 -29 -49 -94 -43 -119 9 -34 36 -30 75 10 31 32 32
36 24 77 -10 49 -30 60 -56 32z"/>
<path d="M1390 2040 c0 -48 21 -62 50 -35 24 22 26 35 5 35 -8 0 -24 9 -35 20
l-20 20 0 -40z"/>
<path d="M3164 2135 c-45 -68 -48 -149 -5 -126 26 15 38 32 50 76 7 26 7 41 1
43 -6 2 -10 10 -10 18 0 22 -18 17 -36 -11z"/>
<path d="M3620 2128 c-32 -52 -24 -66 15 -28 19 19 35 40 35 47 0 25 -30 13
-50 -19z"/>
<path d="M2690 1781 c-13 -25 -13 -71 0 -71 14 0 30 35 30 64 0 31 -15 34 -30
7z"/>
<path d="M2480 1744 c0 -8 5 -12 10 -9 6 3 10 10 10 16 0 5 -4 9 -10 9 -5 0
-10 -7 -10 -16z"/>
</g>
</svg>
